<svg width="28" height="28" viewBox="0 0 28 28" fill="none" xmlns="http://www.w3.org/2000/svg">
<g id="8800325181578983337 1" clip-path="url(#clip0_1765_6412)">
<g id="Group">
<path id="Vector" d="M19.7039 17.3631V19.4517C19.7039 19.8774 19.3591 20.2222 18.9334 20.2222H9.06706C8.64136 20.2222 8.29654 19.8774 8.29654 19.4517V17.3631C8.29654 16.9374 7.95173 16.5926 7.52602 16.5926H0.12054C0.0541701 16.5926 0.000244141 16.6465 0.000244141 16.7129V25.0833C0.000244141 25.8347 0.610022 26.4444 1.36187 26.4444H26.6391C27.3905 26.4444 28.0002 25.8347 28.0002 25.0828V16.7129C28.0002 16.6465 27.9463 16.5926 27.8799 16.5926H20.4745C20.0488 16.5926 19.7039 16.9374 19.7039 17.3631Z" fill="#1081E0"/>
<path id="Vector_2" d="M22.8151 1.55556H5.18543L0.000244141 16.5926V16.7124C0.000244141 16.6465 0.0541701 16.5926 0.12054 16.5926H7.52602C7.95173 16.5926 8.29654 16.9374 8.29654 17.3631V19.4517C8.29654 19.8774 8.64136 20.2222 9.06706 20.2222H18.9334C19.3591 20.2222 19.7039 19.8774 19.7039 19.4517V17.3631C19.7039 16.9374 20.0488 16.5926 20.4745 16.5926H27.8799C27.9463 16.5926 28.0002 16.6465 28.0002 16.7124V16.591L22.8151 1.55556Z" fill="#13649B"/>
<path id="Vector_3" d="M7.52607 16.5926C7.95177 16.5926 8.29659 16.9374 8.29659 17.3631V19.4517C8.29659 19.8774 8.6414 20.2222 9.0671 20.2222H18.9335C19.3592 20.2222 19.704 19.8774 19.704 19.4517V17.3631C19.704 16.9374 20.0488 16.5926 20.4745 16.5926H23.8521V15.037V12.4444H4.14844V15.037V16.5926H7.52607Z" fill="#F2ECBF"/>
<path id="Vector_4" d="M22.2964 8.2963H5.70386V12.4444H22.2964V8.2963Z" fill="#D8D1AB"/>
<path id="Vector_5" d="M20.741 4.14815H7.25952V8.2963H20.741V4.14815Z" fill="#BAB395"/>
</g>
</g>
<defs>
<clipPath id="clip0_1765_6412">
<rect width="28" height="28" fill="white" transform="translate(0.000244141)"/>
</clipPath>
</defs>
</svg>
