<svg width="28" height="28" viewBox="0 0 28 28" fill="none" xmlns="http://www.w3.org/2000/svg">
<g id="18341433051679048198 1" clip-path="url(#clip0_1765_6430)">
<g id="Layer_x0020_1">
<path id="Vector" d="M20.3152 -6.10352e-05C20.8746 -6.10352e-05 21.3829 0.228529 21.7512 0.596766C21.7587 0.604323 21.7659 0.612267 21.7727 0.620277C22.1283 0.987287 22.348 1.486 22.348 2.03264V23.5925C22.348 24.1505 22.1191 24.6586 21.7504 25.0276L21.7512 25.0284C21.3829 25.3966 20.8746 25.6252 20.3152 25.6252H5.3106C4.75123 25.6252 4.2429 25.3966 3.87466 25.0284C3.8671 25.0208 3.85987 25.0129 3.85308 25.0049C3.49751 24.6379 3.27783 24.1392 3.27783 23.5925V2.03264C3.27783 1.47463 3.50674 0.96655 3.87543 0.597541L3.87466 0.596766C4.2429 0.228528 4.75123 -6.10352e-05 5.3106 -6.10352e-05H6.24576V4.00069C6.24576 4.65422 6.51291 5.24815 6.94316 5.67845C7.37347 6.1087 7.96739 6.37585 8.62093 6.37585C9.27447 6.37585 9.86839 6.1087 10.2987 5.67845C10.7289 5.24814 10.9961 4.65422 10.9961 4.00069C10.9961 3.78928 10.8247 3.61785 10.6133 3.61785C10.4018 3.61785 10.2304 3.78928 10.2304 4.00069C10.2304 4.44294 10.0492 4.84535 9.75742 5.13718C9.46559 5.429 9.06319 5.61018 8.62092 5.61018C8.17866 5.61018 7.77626 5.429 7.48443 5.13718C7.1926 4.84535 7.01142 4.44295 7.01142 4.00069V-6.10352e-05H20.3152ZM5.63955 14.7244H7.7267C7.93811 14.7244 8.10954 14.553 8.10954 14.3416V12.2544C8.10954 12.043 7.93811 11.8716 7.7267 11.8716H5.63955C5.42814 11.8716 5.25671 12.043 5.25671 12.2544V14.3416C5.25671 14.553 5.42814 14.7244 5.63955 14.7244ZM7.34387 13.9588H6.02239V12.6373H7.34387V13.9588ZM5.63955 18.9286H7.7267C7.93811 18.9286 8.10954 18.7572 8.10954 18.5458V16.4586C8.10954 16.2472 7.93811 16.0758 7.7267 16.0758H5.63955C5.42814 16.0758 5.25671 16.2472 5.25671 16.4586V18.5458C5.25671 18.7572 5.42814 18.9286 5.63955 18.9286ZM7.34387 18.1629H6.02239V16.8414H7.34387V18.1629ZM19.9863 22.367H5.63964C5.42823 22.367 5.2568 22.5384 5.2568 22.7498C5.2568 22.9612 5.42823 23.1327 5.63964 23.1327H19.9863C20.1977 23.1327 20.3691 22.9612 20.3691 22.7498C20.3691 22.5384 20.1977 22.367 19.9863 22.367ZM19.9863 20.2798H5.63964C5.42823 20.2798 5.2568 20.4513 5.2568 20.6627C5.2568 20.8741 5.42823 21.0455 5.63964 21.0455H19.9863C20.1977 21.0455 20.3691 20.8741 20.3691 20.6627C20.3691 20.4513 20.1977 20.2798 19.9863 20.2798ZM19.9863 18.1629H9.51026C9.29885 18.1629 9.12742 18.3343 9.12742 18.5457C9.12742 18.7571 9.29885 18.9285 9.51026 18.9285H19.9863C20.1977 18.9285 20.3691 18.7571 20.3691 18.5457C20.3691 18.3343 20.1977 18.1629 19.9863 18.1629ZM19.9863 16.0758H9.51026C9.29885 16.0758 9.12742 16.2472 9.12742 16.4586C9.12742 16.67 9.29885 16.8414 9.51026 16.8414H19.9863C20.1977 16.8414 20.3691 16.67 20.3691 16.4586C20.3691 16.2472 20.1977 16.0758 19.9863 16.0758ZM19.9863 13.9588H9.51026C9.29885 13.9588 9.12742 14.1302 9.12742 14.3416C9.12742 14.553 9.29885 14.7244 9.51026 14.7244H19.9863C20.1977 14.7244 20.3691 14.553 20.3691 14.3416C20.3691 14.1302 20.1977 13.9588 19.9863 13.9588ZM19.9863 11.8716H9.51026C9.29885 11.8716 9.12742 12.043 9.12742 12.2545C9.12742 12.4659 9.29885 12.6373 9.51026 12.6373H19.9863C20.1977 12.6373 20.3691 12.4659 20.3691 12.2545C20.3691 12.043 20.1977 11.8716 19.9863 11.8716ZM19.9863 9.78447H5.63958C5.42818 9.78447 5.25675 9.95589 5.25675 10.1673C5.25675 10.3787 5.42818 10.5501 5.63958 10.5501H19.9863C20.1977 10.5501 20.3691 10.3787 20.3691 10.1673C20.3691 9.95589 20.1977 9.78447 19.9863 9.78447ZM19.9863 7.69731H5.63958C5.42818 7.69731 5.25675 7.86874 5.25675 8.08015C5.25675 8.29156 5.42818 8.46299 5.63958 8.46299H19.9863C20.1977 8.46299 20.3691 8.29156 20.3691 8.08015C20.3691 7.86874 20.1977 7.69731 19.9863 7.69731ZM12.4302 5.99299C12.4302 6.2044 12.6016 6.37583 12.813 6.37583H19.9863C20.1977 6.37583 20.3692 6.2044 20.3692 5.99299C20.3692 5.78159 20.1977 5.61016 19.9863 5.61016H12.813C12.6016 5.61016 12.4302 5.78159 12.4302 5.99299Z" fill="#60C3D8"/>
<path id="Vector_2" d="M23.1136 2.41961C23.5028 2.50319 23.8521 2.69948 24.1251 2.97232L24.1259 2.97154C24.4941 3.33978 24.7227 3.84812 24.7227 4.40748V25.9673C24.7227 26.5267 24.4941 27.035 24.1259 27.4033C24.1185 27.4107 24.1107 27.4177 24.1028 27.4244C23.7365 27.7802 23.2376 28.0001 22.69 28.0001H7.6854C7.127 28.0001 6.61919 27.7714 6.25095 27.4033L6.25024 27.4025L6.24946 27.4033C5.97676 27.1306 5.78065 26.781 5.69727 26.3908H20.3151C21.0587 26.3908 21.767 26.0952 22.2925 25.5698C22.8781 24.9842 23.1136 24.5519 23.1136 23.5925L23.1136 2.41961Z" fill="#C7C7C6"/>
</g>
</g>
<defs>
<clipPath id="clip0_1765_6430">
<rect width="28" height="28" fill="white" transform="translate(0.000244141)"/>
</clipPath>
</defs>
</svg>
