<svg width="28" height="28" viewBox="0 0 28 28" fill="none" xmlns="http://www.w3.org/2000/svg">
<g id="14217768821557740324 1">
<g id="Group">
<path id="Vector" d="M3.50024 8.16667V10.5V11.6667V15.1667V16.3333V22.1667V23.3333C3.50024 24.6167 4.54488 25.6667 5.83358 25.6667H22.1669C23.4561 25.6667 24.5002 24.6167 24.5002 23.3333V22.1667V16.3333V11.6667V8.16667H3.50024Z" fill="#16A085"/>
<path id="Vector_2" d="M3.50024 7V9.33333V10.5V14V15.1667V21V22.1667C3.50024 23.45 4.54488 24.5 5.83358 24.5H22.1669C23.4561 24.5 24.5002 23.45 24.5002 22.1667V21V15.1667V10.5V7H3.50024Z" fill="#ECF0F1"/>
<path id="Vector_3" d="M3.50024 5.83333V8.16667V9.33333V12.8333V14V19.8333V21C3.50024 22.2833 4.54488 23.3333 5.83358 23.3333H22.1669C23.4561 23.3333 24.5002 22.2833 24.5002 21V19.8333V14V9.33333V5.83333H3.50024Z" fill="#BDC3C7"/>
<path id="Vector_4" d="M3.50024 4.66667V7V8.16667V11.6667V12.8333V18.6667V19.8333C3.50024 21.1167 4.54488 22.1667 5.83358 22.1667H22.1669C23.4561 22.1667 24.5002 21.1167 24.5002 19.8333V18.6667V12.8333V8.16667V4.66667H3.50024Z" fill="#ECF0F1"/>
<path id="Vector_5" d="M5.83358 0C4.54488 0 3.50024 1.05 3.50024 2.33333V3.5V8.16667V10.5V11.6667V15.1667V16.3333V22.1667V23.3333C3.50024 24.6167 4.54488 25.6667 5.83358 25.6667H8.16691V24.5H6.41691C5.45044 24.5 4.66691 23.6833 4.66691 22.75C4.66691 21.7 5.45044 21 6.41691 21H21.0002H22.1669C23.4561 21 24.5002 19.95 24.5002 18.6667V17.5V11.6667V7V3.5V2.33333C24.5002 1.05 23.4561 0 22.1669 0H17.5002H5.83358Z" fill="#16A085"/>
<path id="Vector_6" d="M9.3335 0V21H10.5002H21.0002H22.1668C23.456 21 24.5002 19.95 24.5002 18.6667V17.5V11.6667V7V3.5V2.33333C24.5002 1.05 23.456 0 22.1668 0H17.5002H10.5002H9.3335Z" fill="#1ABC9C"/>
<path id="Vector_7" d="M8.16699 23.3333V25.6667V28L11.0837 25.6667L14.0003 28V25.6667V23.3333H8.16699Z" fill="#E74C3C"/>
<path id="Vector_8" d="M14.0003 22.1667H8.16699V23.3333H14.0003V22.1667Z" fill="#C0392B"/>
</g>
</g>
</svg>
