<svg width="28" height="28" viewBox="0 0 28 28" fill="none" xmlns="http://www.w3.org/2000/svg">
<g id="171755632416313447354152 1">
<path id="Vector" d="M26.8409 21.5163L24.3034 16.24C24.9997 15.0275 25.4357 13.6831 25.5834 12.2927C25.7312 10.9022 25.5876 9.4962 25.1617 8.16436C24.7358 6.83248 24.0371 5.60402 23.11 4.55731C22.1828 3.51055 21.0478 2.66853 19.7771 2.08493C18.5064 1.50133 17.128 1.18896 15.7299 1.16775C14.3318 1.14654 12.9446 1.41696 11.6568 1.96175C10.369 2.50654 9.20891 3.31375 8.25048 4.33188C7.29201 5.35001 6.55631 6.55672 6.09024 7.87504C6.05572 7.95887 6.03892 8.04895 6.04093 8.1396C6.04295 8.23025 6.06373 8.3195 6.10196 8.40171C6.1402 8.48391 6.19502 8.55732 6.26305 8.61726C6.33104 8.6772 6.41075 8.72244 6.49711 8.75004C6.62338 8.79336 6.75988 8.79686 6.8882 8.76011C7.01651 8.72331 7.13044 8.64802 7.21461 8.54442L20.4227 19.1057C20.3765 19.2561 20.3855 19.418 20.4481 19.5624C20.5106 19.7068 20.6226 19.824 20.764 19.8932L25.9659 22.3913C26.0546 22.4341 26.1517 22.4565 26.2502 22.4569C26.3611 22.4568 26.4703 22.4285 26.5673 22.3748C26.6644 22.3211 26.7462 22.2436 26.8052 22.1497C26.8642 22.0557 26.8984 21.9483 26.9047 21.8376C26.9109 21.7268 26.8889 21.6163 26.8409 21.5163Z" fill="#275996"/>
<path id="Vector_2" d="M12.386 5.54308C10.6141 5.54225 8.87342 6.00928 7.33989 6.89697C5.80641 7.78466 4.53451 9.06159 3.65282 10.5985C2.77113 12.1355 2.31092 13.878 2.31873 15.6499C2.32653 17.4218 2.80208 19.1602 3.69727 20.6893L1.15977 25.9656C1.10129 26.088 1.0822 26.2256 1.10516 26.3594C1.1281 26.4931 1.19195 26.6165 1.28791 26.7124C1.38387 26.8084 1.50723 26.8723 1.64098 26.8952C1.77473 26.9181 1.91231 26.8991 2.03477 26.8406L7.31102 24.3031C8.64579 25.0797 10.1414 25.5387 11.6821 25.6445C13.2227 25.7502 14.767 25.5 16.1954 24.9131C17.6238 24.3263 18.898 23.4185 19.9192 22.2602C20.9405 21.1018 21.6814 19.7239 22.0847 18.2332C22.488 16.7426 22.5428 15.1791 22.2448 13.6638C21.9468 12.1486 21.304 10.7223 20.3663 9.49532C19.4285 8.26836 18.221 7.2737 16.8372 6.58836C15.4533 5.90297 13.9303 5.54536 12.386 5.54308Z" fill="#97CCEF"/>
<path id="Vector_3" d="M9.38477 12.3025H15.5098C15.6838 12.3025 15.8508 12.2334 15.9738 12.1103C16.0969 11.9873 16.166 11.8203 16.166 11.6463C16.166 11.4723 16.0969 11.3053 15.9738 11.1823C15.8508 11.0592 15.6838 10.99 15.5098 10.99H9.38477C9.21073 10.99 9.04378 11.0592 8.92071 11.1823C8.79764 11.3053 8.72852 11.4723 8.72852 11.6463C8.72852 11.8203 8.79764 11.9873 8.92071 12.1103C9.04378 12.2334 9.21073 12.3025 9.38477 12.3025Z" fill="#0099D6"/>
<path id="Vector_4" d="M6.73779 15.0412H18.1697C18.3438 15.0412 18.5107 14.972 18.6337 14.849C18.7568 14.7259 18.8259 14.559 18.8259 14.385C18.8259 14.2109 18.7568 14.044 18.6337 13.9209C18.5107 13.7978 18.3438 13.7287 18.1697 13.7287H6.73779C6.56376 13.7287 6.39685 13.7978 6.27378 13.9209C6.15071 14.044 6.08154 14.2109 6.08154 14.385C6.08154 14.559 6.15071 14.7259 6.27378 14.849C6.39685 14.972 6.56376 15.0412 6.73779 15.0412Z" fill="#0099D6"/>
<path id="Vector_5" d="M18.1697 16.4631H6.73779C6.56376 16.4631 6.39685 16.5322 6.27378 16.6553C6.15071 16.7783 6.08154 16.9453 6.08154 17.1193C6.08154 17.2934 6.15071 17.4603 6.27378 17.5833C6.39685 17.7064 6.56376 17.7756 6.73779 17.7756H18.1697C18.3438 17.7756 18.5107 17.7064 18.6337 17.5833C18.7568 17.4603 18.8259 17.2934 18.8259 17.1193C18.8259 16.9453 18.7568 16.7783 18.6337 16.6553C18.5107 16.5322 18.3438 16.4631 18.1697 16.4631Z" fill="#0099D6"/>
<path id="Vector_6" d="M15.523 19.2019H9.39795C9.22391 19.2019 9.05701 19.2711 8.93394 19.3942C8.81087 19.5172 8.7417 19.6841 8.7417 19.8582C8.7417 20.0323 8.81087 20.1992 8.93394 20.3222C9.05701 20.4453 9.22391 20.5144 9.39795 20.5144H15.523C15.697 20.5144 15.8639 20.4453 15.987 20.3222C16.1101 20.1992 16.1792 20.0323 16.1792 19.8582C16.1792 19.6841 16.1101 19.5172 15.987 19.3942C15.8639 19.2711 15.697 19.2019 15.523 19.2019Z" fill="#0099D6"/>
</g>
</svg>
