<svg width="28" height="28" viewBox="0 0 28 28" fill="none" xmlns="http://www.w3.org/2000/svg">
<g id="15540391081536925045 1" clip-path="url(#clip0_1765_6405)">
<path id="Vector" d="M28.0003 23.5119V25.3786C25.6527 25.3786 22.4314 23.2848 19.0279 23.2848C17.0224 23.2848 15.7655 24.1123 15.0102 24.9393H14.0003L12.7559 19.1414L28.0003 23.5119Z" fill="#1B4145"/>
<path id="Vector_2" d="M14.0002 19.1414V24.9393H12.9904C12.235 24.1124 10.9781 23.2848 8.97271 23.2848C5.56918 23.2848 2.34792 25.3786 0.000244141 25.3786V23.5119L14.0002 19.1414Z" fill="#609399"/>
<path id="Vector_3" d="M28.0004 4.71521V23.5119C25.6527 23.5119 22.4315 21.4181 19.0279 21.4181C17.0224 21.4181 15.7656 22.2457 15.0102 23.0727H14.0004L11.5115 14.5019L14.0004 5.93102C14.0004 5.93102 15.0171 2.62144 19.0279 2.62144C22.4315 2.62144 25.6527 4.71521 28.0004 4.71521Z" fill="#6FC5D6"/>
<path id="Vector_4" d="M14.0002 5.93102V23.0726H12.9904C12.235 22.2451 10.9781 21.4181 8.97271 21.4181C5.56918 21.4181 2.34792 23.5119 0.000244141 23.5119V4.71521C2.34787 4.71521 5.56913 2.62144 8.97271 2.62144C12.9835 2.62144 14.0002 5.93102 14.0002 5.93102Z" fill="#B4E5EA"/>
</g>
<defs>
<clipPath id="clip0_1765_6405">
<rect width="28" height="28" fill="white" transform="translate(0.000244141)"/>
</clipPath>
</defs>
</svg>
